<?xml version="1.0" standalone="no"?><svg xmlns="http://www.w3.org/2000/svg" viewBox="0 0 1440 320"><path fill="#cce4fd" fill-opacity="1" d="M0,160L30,181.3C60,203,120,245,180,261.3C240,277,300,267,360,229.3C420,192,480,128,540,96C600,64,660,64,720,74.7C780,85,840,107,900,122.7C960,139,1020,149,1080,176C1140,203,1200,245,1260,250.7C1320,256,1380,224,1410,208L1440,192L1440,0L1410,0C1380,0,1320,0,1260,0C1200,0,1140,0,1080,0C1020,0,960,0,900,0C840,0,780,0,720,0C660,0,600,0,540,0C480,0,420,0,360,0C300,0,240,0,180,0C120,0,60,0,30,0L0,0Z"></path></svg>